%TF.GenerationSoftware,KiCad,Pcbnew,10.0.5*%
%TF.CreationDate,2026-08-21T10:59:05+02:00*%
%TF.ProjectId,balccon-2k26-hardware,62616c63-636f-46e2-9d32-6b32362d6861,rev?*%
%TF.SameCoordinates,Original*%
%TF.FileFunction,Paste,Bot*%
%TF.FilePolarity,Positive*%
%FSLAX46Y46*%
G04 Gerber Fmt 4.6, Leading zero omitted, Abs format (unit mm)*
G04 Created by KiCad (PCBNEW 10.0.5) date 2026-08-21 10:59:05*
%MOMM*%
%LPD*%
G01*
G04 APERTURE LIST*
G04 Aperture macros list*
%AMRoundRect*
0 Rectangle with rounded corners*
0 $1 Rounding radius*
0 $2 $3 $4 $5 $6 $7 $8 $9 X,Y pos of 4 corners*
0 Add a 4 corners polygon primitive as box body*
4,1,4,$2,$3,$4,$5,$6,$7,$8,$9,$2,$3,0*
0 Add four circle primitives for the rounded corners*
1,1,$1+$1,$2,$3*
1,1,$1+$1,$4,$5*
1,1,$1+$1,$6,$7*
1,1,$1+$1,$8,$9*
0 Add four rect primitives between the rounded corners*
20,1,$1+$1,$2,$3,$4,$5,0*
20,1,$1+$1,$4,$5,$6,$7,0*
20,1,$1+$1,$6,$7,$8,$9,0*
20,1,$1+$1,$8,$9,$2,$3,0*%
%AMRotRect*
0 Rectangle, with rotation*
0 The origin of the aperture is its center*
0 $1 length*
0 $2 width*
0 $3 Rotation angle, in degrees counterclockwise*
0 Add horizontal line*
21,1,$1,$2,0,0,$3*%
G04 Aperture macros list end*
%ADD10RoundRect,0.250000X0.450000X-0.325000X0.450000X0.325000X-0.450000X0.325000X-0.450000X-0.325000X0*%
%ADD11RoundRect,0.250000X-0.538219X-0.135814X-0.040290X-0.553626X0.538219X0.135814X0.040290X0.553626X0*%
%ADD12RoundRect,0.250000X-0.564711X0.078109X-0.214711X-0.528109X0.564711X-0.078109X0.214711X0.528109X0*%
%ADD13RoundRect,0.250000X-0.548008X-0.088388X-0.088388X-0.548008X0.548008X0.088388X0.088388X0.548008X0*%
%ADD14RoundRect,0.250000X-0.544813X-0.167867X0.028594X-0.569370X0.544813X0.167867X-0.028594X0.569370X0*%
%ADD15RoundRect,0.250000X0.565685X0.070711X0.070711X0.565685X-0.565685X-0.070711X-0.070711X-0.565685X0*%
%ADD16RoundRect,0.250000X-0.565685X-0.070711X-0.070711X-0.565685X0.565685X0.070711X0.070711X0.565685X0*%
%ADD17RotRect,5.100000X5.100000X225.000000*%
%ADD18RoundRect,0.160000X-0.270468X0.044194X0.044194X-0.270468X0.270468X-0.044194X-0.044194X0.270468X0*%
%ADD19RoundRect,0.250000X-0.450000X0.325000X-0.450000X-0.325000X0.450000X-0.325000X0.450000X0.325000X0*%
%ADD20RoundRect,0.237500X-0.371231X0.035355X0.035355X-0.371231X0.371231X-0.035355X-0.035355X0.371231X0*%
%ADD21RoundRect,0.250000X-0.325000X-0.450000X0.325000X-0.450000X0.325000X0.450000X-0.325000X0.450000X0*%
%ADD22RoundRect,0.250000X0.119744X-0.557370X0.569696X-0.021139X-0.119744X0.557370X-0.569696X0.021139X0*%
%ADD23RoundRect,0.250000X0.070711X-0.565685X0.565685X-0.070711X-0.070711X0.565685X-0.565685X0.070711X0*%
%ADD24RoundRect,0.250000X0.552211X-0.056458X0.227211X0.506458X-0.552211X0.056458X-0.227211X-0.506458X0*%
%ADD25RoundRect,0.250000X0.524334X0.182206X-0.008115X0.555031X-0.524334X-0.182206X0.008115X-0.555031X0*%
%ADD26RoundRect,0.090000X-0.161927X0.034648X0.034648X-0.161927X0.161927X-0.034648X-0.034648X0.161927X0*%
%ADD27RotRect,1.000000X0.800000X312.000000*%
%ADD28RotRect,0.700000X1.500000X312.000000*%
%ADD29RoundRect,0.250000X0.450000X-0.350000X0.450000X0.350000X-0.450000X0.350000X-0.450000X-0.350000X0*%
%ADD30RoundRect,0.250000X-0.450000X0.350000X-0.450000X-0.350000X0.450000X-0.350000X0.450000X0.350000X0*%
%ADD31RoundRect,0.250000X-0.350000X-0.450000X0.350000X-0.450000X0.350000X0.450000X-0.350000X0.450000X0*%
%ADD32RoundRect,0.250000X0.548008X0.088388X0.088388X0.548008X-0.548008X-0.088388X-0.088388X-0.548008X0*%
G04 APERTURE END LIST*
D10*
%TO.C,D10*%
X134500000Y-109925000D03*
X134500000Y-107875000D03*
%TD*%
D11*
%TO.C,D12*%
X157614805Y-100741143D03*
X159185195Y-102058857D03*
%TD*%
D12*
%TO.C,R9*%
X140400000Y-100933975D03*
X141400000Y-102666025D03*
%TD*%
D13*
%TO.C,D5*%
X146075216Y-66375216D03*
X147524784Y-67824784D03*
%TD*%
D14*
%TO.C,R7*%
X150680848Y-90826424D03*
X152319152Y-91973576D03*
%TD*%
D15*
%TO.C,R3*%
X127007107Y-102707107D03*
X125592893Y-101292893D03*
%TD*%
D16*
%TO.C,R8*%
X147092893Y-97092893D03*
X148507107Y-98507107D03*
%TD*%
D15*
%TO.C,R5*%
X150407107Y-70707107D03*
X148992893Y-69292893D03*
%TD*%
D17*
%TO.C,BT1*%
X129850967Y-67049033D03*
X111749033Y-85150967D03*
%TD*%
D18*
%TO.C,D3*%
X120990362Y-97095181D03*
X121800000Y-97904819D03*
%TD*%
D19*
%TO.C,D14*%
X140900000Y-113675000D03*
X140900000Y-115725000D03*
%TD*%
D20*
%TO.C,D2*%
X123262564Y-94462564D03*
X124500000Y-95700000D03*
%TD*%
D13*
%TO.C,D1*%
X125975216Y-91575216D03*
X127424784Y-93024784D03*
%TD*%
D21*
%TO.C,D11*%
X161375000Y-90600000D03*
X163425000Y-90600000D03*
%TD*%
D22*
%TO.C,R12*%
X159857213Y-105166045D03*
X161142787Y-103633955D03*
%TD*%
D23*
%TO.C,R13*%
X151992893Y-112407107D03*
X153407107Y-110992893D03*
%TD*%
D13*
%TO.C,D13*%
X150475216Y-108175216D03*
X151924784Y-109624784D03*
%TD*%
D24*
%TO.C,D9*%
X143912500Y-107187676D03*
X142887500Y-105412324D03*
%TD*%
D15*
%TO.C,R1*%
X132007107Y-97507107D03*
X130592893Y-96092893D03*
%TD*%
D25*
%TO.C,D7*%
X156339629Y-94587916D03*
X154660371Y-93412084D03*
%TD*%
D26*
%TO.C,D4*%
X118944176Y-99344176D03*
X119555824Y-99955824D03*
%TD*%
D15*
%TO.C,R2*%
X129507107Y-100207107D03*
X128092893Y-98792893D03*
%TD*%
D27*
%TO.C,SW1*%
X156820371Y-61030665D03*
X155178021Y-62509444D03*
X161705023Y-66455623D03*
X160062674Y-67934400D03*
D28*
X155631759Y-63984781D03*
X157639152Y-66214216D03*
X158642848Y-67328932D03*
%TD*%
D29*
%TO.C,R11*%
X166600000Y-93200000D03*
X166600000Y-91200000D03*
%TD*%
D15*
%TO.C,R4*%
X124407107Y-105207107D03*
X122992893Y-103792893D03*
%TD*%
D13*
%TO.C,D6*%
X132400000Y-85000000D03*
X133849568Y-86449568D03*
%TD*%
D30*
%TO.C,R10*%
X134500000Y-102900000D03*
X134500000Y-104900000D03*
%TD*%
D31*
%TO.C,R14*%
X138800000Y-118000000D03*
X140800000Y-118000000D03*
%TD*%
D15*
%TO.C,R6*%
X137114214Y-89514214D03*
X135700000Y-88100000D03*
%TD*%
D32*
%TO.C,D8*%
X151624784Y-101824784D03*
X150175216Y-100375216D03*
%TD*%
M02*
